<svg width="18" height="18" viewBox="0 0 18 18" fill="none" xmlns="http://www.w3.org/2000/svg">
<path d="M11.58 3.41998C11.0787 2.9094 10.4813 2.5032 9.82213 2.22484C9.16298 1.94647 8.45521 1.80146 7.7397 1.79817C7.0242 1.79488 6.31513 1.93339 5.65345 2.20568C4.99177 2.47798 4.3906 2.87867 3.88465 3.38462C3.37871 3.89056 2.97802 4.49174 2.70572 5.15341C2.43342 5.81509 2.29492 6.52416 2.29821 7.23967C2.30149 7.95518 2.44651 8.66294 2.72487 9.32209C3.00324 9.98124 3.40944 10.5787 3.92001 11.08C4.93897 12.0804 6.31175 12.6379 7.7397 12.6314C9.16766 12.6248 10.5353 12.0547 11.545 11.0449C12.5547 10.0352 13.1249 8.66762 13.1314 7.23967C13.138 5.81172 12.5804 4.43894 11.58 3.41998ZM2.74168 2.24164C4.01903 0.964612 5.73597 0.223789 7.54141 0.170669C9.34685 0.117549 11.1044 0.756145 12.4546 1.95587C13.8048 3.15559 14.6457 4.8258 14.8054 6.62496C14.965 8.42411 14.4313 10.2163 13.3133 11.635L17.7675 16.0891L16.5892 17.2675L12.135 12.8133C10.7158 13.9271 8.92522 14.4575 7.1284 14.2963C5.33157 14.1351 3.66394 13.2945 2.46566 11.9459C1.26739 10.5973 0.62876 8.84237 0.680052 7.03906C0.731343 5.23575 1.46869 3.51994 2.74168 2.24164Z" fill="black"/>
</svg>
