<svg width="25" height="25" viewBox="0 0 25 25" fill="none" xmlns="http://www.w3.org/2000/svg">
<path d="M8.59375 21.0938C9.02522 21.0938 9.375 20.744 9.375 20.3125C9.375 19.881 9.02522 19.5312 8.59375 19.5312C8.16228 19.5312 7.8125 19.881 7.8125 20.3125C7.8125 20.744 8.16228 21.0938 8.59375 21.0938Z" stroke="black" stroke-width="1.875" stroke-linecap="round" stroke-linejoin="round"/>
<path d="M19.5312 21.0938C19.9627 21.0938 20.3125 20.744 20.3125 20.3125C20.3125 19.881 19.9627 19.5312 19.5312 19.5312C19.0998 19.5312 18.75 19.881 18.75 20.3125C18.75 20.744 19.0998 21.0938 19.5312 21.0938Z" stroke="black" stroke-width="1.875" stroke-linecap="round" stroke-linejoin="round"/>
<path d="M2.34375 3.90625H5.46875L7.8125 17.1875H20.3125" stroke="black" stroke-width="1.875" stroke-linecap="round" stroke-linejoin="round"/>
<path d="M7.8125 14.0625H19.9922C20.0825 14.0626 20.1701 14.0313 20.24 13.9741C20.3099 13.9168 20.3578 13.8371 20.3755 13.7485L21.7817 6.71729C21.7931 6.66059 21.7917 6.60208 21.7777 6.54598C21.7637 6.48988 21.7374 6.43759 21.7007 6.39289C21.6641 6.34818 21.6179 6.31218 21.5656 6.28747C21.5134 6.26276 21.4563 6.24996 21.3984 6.25H6.25" stroke="black" stroke-width="1.875" stroke-linecap="round" stroke-linejoin="round"/>
</svg>
